HIERARCHY
ROOT hip
{
	OFFSET 0.000000 0.000000 0.000000 
	CHANNELS 6 Xposition Yposition Zposition Xrotation Zrotation Yrotation
	JOINT abdomen
	{
		OFFSET 0.000000 3.402643 0.000000 
		CHANNELS 3 Xrotation Zrotation Yrotation
		JOINT chest
		{
			OFFSET 0.000000 8.438565 -0.680529 
			CHANNELS 3 Xrotation Zrotation Yrotation
			JOINT neck
			{
				OFFSET 0.000000 10.207942 -0.272212 
				CHANNELS 3 Xrotation Zrotation Yrotation
				JOINT head
				{
					OFFSET 0.000000 3.130431 0.000000 
					CHANNELS 3 Xrotation Zrotation Yrotation
					End Site
					{
						OFFSET 0.000000 3.130435 0.000000 
					}
				}
			}
			JOINT lCollar
			{
				OFFSET 3.470700 6.669187 -0.816635 
				CHANNELS 3 Yrotation Zrotation Xrotation
				JOINT lShldr
				{
					OFFSET 3.198488 0.000000 0.000000 
					CHANNELS 3 Zrotation Yrotation Xrotation
					JOINT lForeArm
					{
						OFFSET 10.139888 0.000000 0.000000 
						CHANNELS 3 Yrotation Zrotation Xrotation
						JOINT lHand
						{
							OFFSET 8.370511 0.000000 0.000000 
							CHANNELS 3 Zrotation Yrotation Xrotation
							End Site
							{
								OFFSET 4.083176 0.000000 0.000000 
							}
						}
					}
				}
			}
			JOINT rCollar
			{
				OFFSET -3.470700 6.669187 -0.816635 
				CHANNELS 3 Yrotation Zrotation Xrotation
				JOINT rShldr
				{
					OFFSET -3.198488 0.000000 0.000000 
					CHANNELS 3 Zrotation Yrotation Xrotation
					JOINT rForeArm
					{
						OFFSET -10.139888 0.000000 0.000000 
						CHANNELS 3 Yrotation Zrotation Xrotation
						JOINT rHand
						{
							OFFSET -8.370511 0.000000 0.000000 
							CHANNELS 3 Zrotation Yrotation Xrotation
							End Site
							{
								OFFSET -4.083176 0.000000 0.000000 
							}
						}
					}
				}
			}
		}
	}
	JOINT lThigh
	{
		OFFSET 5.308129 -1.633274 1.361059 
		CHANNELS 3 Xrotation Zrotation Yrotation
		JOINT lShin
		{
			OFFSET -2.041588 -20.007561 0.000000 
			CHANNELS 3 Xrotation Zrotation Yrotation
			JOINT lFoot
			{
				OFFSET 0.000000 -19.190928 -1.224953 
				CHANNELS 3 Xrotation Yrotation Zrotation
				End Site
				{
					OFFSET 0.000000 -2.449906 4.627600 
				}
			}
		}
	}
	JOINT rThigh
	{
		OFFSET -5.308129 -1.633274 1.361059 
		CHANNELS 3 Xrotation Zrotation Yrotation
		JOINT rShin
		{
			OFFSET 2.041588 -20.007561 0.000000 
			CHANNELS 3 Xrotation Zrotation Yrotation
			JOINT rFoot
			{
				OFFSET 0.000000 -19.190928 -1.224953 
				CHANNELS 3 Xrotation Yrotation Zrotation
				End Site
				{
					OFFSET 0.000000 -2.449906 4.627600 
				}
			}
		}
	}
}
MOTION
Frames: 13
Frame Time: 0.016667
-0.707663 45.441769 0.347038 6.417190 -3.338370 3.178930 -21.740101 2.097190 -1.971060 17.213600 2.495750 -0.663178 10.500000 15.245800 -14.699700 12.842200 10.339400 -6.750940 2.000000 -2.000000 0.000000 -89.900902 -1.089330 -147.839996 78.389198 -0.242366 0.133967 0.124176 -0.138548 163.362000 -2.000000 2.000000 0.000000 80.791901 10.822400 -129.591003 -76.318901 0.247185 0.132844 -0.054681 0.009512 -140.320007 -20.145491 5.109950 0.263448 20.232422 2.834703 1.588325 1.887351 10.374722 1.040423 -7.782321 6.256968 1.901453 17.168489 -2.374943 -1.531008 -11.758188 -10.987551 -4.061784 
-0.721502 45.427711 0.392372 6.417250 -3.348080 3.031360 -21.798700 2.115320 -2.033800 17.360399 2.418110 -0.681747 10.550700 15.066400 -14.578200 12.811900 10.321000 -6.712060 2.000000 -2.000000 0.000000 -90.047302 -0.796148 -147.733002 77.871597 -0.243574 0.133713 0.120614 -0.136406 164.845993 -2.000000 2.000000 0.000000 80.694397 10.031700 -129.835999 -76.397003 0.247004 0.132888 -0.054681 0.009512 -140.320007 -19.776060 5.118728 -0.381339 20.218756 2.860108 1.582988 1.441611 10.218454 1.087754 -7.773954 6.263621 1.784778 17.285059 -2.387385 -1.530182 -11.852558 -10.752355 -4.017435 
-0.733639 45.411091 0.449322 6.339060 -3.358290 2.712580 -21.800100 2.162080 -1.936840 17.526800 2.340480 -0.621792 10.568800 14.884200 -14.564800 12.799900 10.253800 -6.714290 2.000000 -2.000000 0.000000 -90.125099 -0.571165 -147.548004 77.353996 -0.244780 0.133449 0.116424 -0.133721 166.623001 -2.000000 2.000000 0.000000 80.685402 9.290290 -130.315994 -76.426300 0.246936 0.132905 -0.054723 0.010194 -140.563995 -19.250599 5.162210 -0.965467 20.055565 2.891157 1.560817 1.104041 10.336154 1.120103 -7.656749 6.332548 2.052279 17.326242 -2.376992 -1.538131 -11.925220 -10.706191 -4.003219 
-0.733469 45.391106 0.519985 6.221730 -3.368760 2.288700 -21.812099 2.246160 -1.823750 17.663601 2.331010 -0.547357 10.526300 14.715800 -14.562100 12.758800 10.206600 -6.718770 2.000000 -2.000000 0.000000 -90.251999 -0.307415 -147.509003 76.895103 -0.245848 0.133205 0.112229 -0.140609 168.440002 -2.000000 2.000000 0.000000 80.676399 8.558690 -130.845001 -76.397003 0.247004 0.132888 -0.054864 0.012213 -141.287003 -18.554024 5.202362 -1.563345 19.575115 2.926104 1.523975 0.994877 10.711314 1.167397 -7.560288 6.421073 2.404897 17.509270 -2.411288 -1.548949 -12.020226 -10.640198 -3.968188 
-0.716634 45.369579 0.601782 6.104590 -3.408340 1.861740 -21.833799 2.346970 -1.749430 17.800400 2.350800 -0.484140 10.430100 14.552800 -14.524000 12.688200 10.170000 -6.707380 2.000000 -2.000000 0.000000 -90.398697 0.014594 -147.636993 76.602097 -0.246529 0.133044 0.109331 -0.128738 169.718994 -2.000000 2.000000 0.000000 80.628403 7.846680 -131.403000 -76.358002 0.247095 0.132866 -0.055180 0.015809 -142.576004 -17.839821 5.188499 -2.264604 18.841496 2.982170 1.434655 1.293253 11.461777 1.113312 -7.400313 6.485810 2.669187 17.595631 -2.428621 -1.549896 -12.112226 -10.509995 -3.934940 
-0.692722 45.350109 0.686406 5.997410 -3.477010 1.470370 -21.875200 2.458660 -1.702030 17.937201 2.380330 -0.440805 10.272600 14.413900 -14.476900 12.598100 10.143600 -6.678370 2.000000 -2.000000 0.000000 -90.506401 0.336445 -147.841995 76.533699 -0.246687 0.133007 0.108150 -0.127851 170.246002 -2.000000 2.000000 0.000000 80.658699 7.203110 -132.009003 -76.240799 0.247366 0.132800 -0.055747 0.020753 -144.352997 -17.205309 5.197422 -2.810163 18.056919 3.040051 1.355302 2.077256 12.348555 0.980683 -7.212222 6.573825 2.877963 17.669638 -2.455753 -1.523256 -12.207939 -10.402318 -3.869170 
-0.669573 45.336315 0.763502 5.909850 -3.555270 1.155160 -21.916000 2.544120 -1.696420 18.025101 2.439030 -0.420207 10.115900 14.304200 -14.411900 12.508600 10.136400 -6.648160 2.000000 -2.000000 0.000000 -90.516403 0.648490 -148.067993 76.650902 -0.246415 0.133071 0.108259 -0.127934 170.197006 -2.000000 2.000000 0.000000 80.806198 6.686630 -132.694000 -75.986900 0.247955 0.132655 -0.056556 0.026217 -146.326004 -16.718536 5.221119 -3.030821 17.511406 3.089365 1.309962 2.846455 13.109396 0.834364 -7.033729 6.659369 3.066230 17.621138 -2.450021 -1.523287 -12.206382 -10.295133 -3.845482 
-0.644824 45.330898 0.829359 5.821850 -3.565550 0.993601 -21.965300 2.578170 -1.744450 18.093300 2.507450 -0.429996 9.962560 14.231600 -14.356700 12.428700 10.119300 -6.615890 2.000000 -2.000000 0.000000 -90.409203 0.882548 -148.223999 76.875504 -0.245894 0.133194 0.108674 -0.138012 170.011993 -2.000000 2.000000 0.000000 81.100502 6.316790 -133.466003 -75.566902 0.248926 0.132408 -0.057536 0.031570 -148.268997 -16.357521 5.182097 -3.087455 17.209448 3.108310 1.286660 3.273495 13.608487 0.731919 -6.850816 6.647095 3.158634 17.620487 -2.460823 -1.544282 -12.293053 -10.211258 -3.823093 
-0.619551 45.332584 0.884616 5.772210 -3.449260 1.018190 -22.013000 2.533880 -1.834620 18.151800 2.605130 -0.480350 9.772870 14.208100 -14.327500 12.349600 10.131200 -6.579400 2.000000 -2.000000 0.000000 -90.233597 1.038580 -148.332001 77.090401 -0.245394 0.133309 0.108478 -0.128099 170.100006 -2.000000 2.000000 0.000000 81.453499 6.025230 -134.315994 -75.068901 0.250076 0.132107 -0.058604 0.036487 -150.065994 -16.105230 5.019201 -3.130178 16.933634 3.094732 1.278409 3.474441 13.796349 0.692117 -6.791904 6.526511 3.137016 17.734745 -2.490497 -1.546567 -12.412453 -10.225190 -3.833517 
-0.607655 45.335155 0.922808 5.761220 -3.245280 1.215690 -22.089001 2.459400 -1.976980 18.161200 2.790530 -0.556003 9.555520 14.223900 -14.308600 12.271100 10.162300 -6.559710 2.000000 -2.000000 0.000000 -89.989502 1.145900 -148.380997 77.295502 -0.244917 0.133418 0.107433 -0.127304 170.569000 -2.000000 2.000000 0.000000 81.835800 5.753320 -135.225006 -74.570801 0.251222 0.131796 -0.059699 0.040892 -151.686996 -15.902907 4.814857 -3.032012 16.590096 3.066392 1.249012 3.620449 13.571022 0.709278 -6.837816 6.314207 3.042948 18.007446 -2.511498 -1.534774 -12.616636 -10.358175 -3.911471 
-0.607186 45.332069 0.943129 5.730910 -3.070540 1.459490 -22.175100 2.400650 -2.105580 18.102100 2.995300 -0.635975 9.360460 14.236900 -14.312500 12.192300 10.183800 -6.541470 2.000000 -2.000000 0.000000 -89.657303 1.175500 -148.235001 77.490799 -0.244462 0.133520 0.105899 -0.126113 171.261993 -2.000000 2.000000 0.000000 82.257401 5.471820 -136.220001 -74.141197 0.252210 0.131519 -0.070645 0.054899 -153.259995 -15.814072 4.666468 -2.808574 16.382097 3.061372 1.241230 3.620987 13.027353 0.726660 -6.901319 6.163656 2.986661 18.279585 -2.542671 -1.544461 -12.789569 -10.579554 -4.001688 
-0.596943 45.323689 0.964019 5.632810 -3.012750 1.597420 -22.213600 2.380560 -2.131210 18.033501 3.082950 -0.653170 9.186490 14.218200 -14.343900 12.142700 10.185100 -6.540340 2.000000 -2.000000 0.000000 -89.227097 1.068770 -147.893005 77.695801 -0.243984 0.133625 -179.895996 -179.875000 -7.966600 -2.000000 2.000000 0.000000 82.737602 5.180730 -137.304993 -73.887299 0.252792 0.131353 -0.071975 0.049445 -154.871002 -15.713303 4.630824 -2.594660 16.373018 3.056702 1.240675 3.502661 12.604272 0.757717 -6.903766 6.118891 3.006050 18.515425 -2.553382 -1.561565 -12.926710 -10.723172 -4.058675 
-0.565563 45.316860 0.991437 5.515660 -3.052240 1.638900 -22.213699 2.378370 -2.109230 18.023800 3.043900 -0.642209 9.070070 14.168500 -14.341300 12.102500 10.166900 -6.530410 2.000000 -2.000000 0.000000 -88.777397 0.854731 -147.492004 77.930199 -0.243437 0.133743 -179.897995 -179.876999 -7.116990 -2.000000 2.000000 0.000000 83.217796 4.918880 -138.330994 -73.809097 0.252971 0.131301 -0.073390 0.053615 -156.442993 -15.593373 4.658109 -2.483004 16.451197 3.065873 1.250701 3.353898 12.419550 0.781566 -6.772659 6.142287 3.022230 18.572889 -2.565838 -1.562495 -12.969507 -10.800548 -4.072099 
